<?xml version="1.0" encoding="UTF-8" standalone="no"?>
<!DOCTYPE svg PUBLIC "-//W3C//DTD SVG 1.1//EN"
 "http://www.w3.org/Graphics/SVG/1.1/DTD/svg11.dtd">
<!-- Generated by graphviz version 2.40.1 (20161225.0304)
 -->
<!-- Title: G Pages: 1 -->
<svg width="683pt" height="576pt"
 viewBox="0.00 0.00 683.00 576.00" xmlns="http://www.w3.org/2000/svg" xmlns:xlink="http://www.w3.org/1999/xlink">
<g id="graph0" class="graph" transform="scale(1 1) rotate(0) translate(4 572)">
<title>G</title>
<polygon fill="#ffffff" stroke="transparent" points="-4,4 -4,-572 679,-572 679,4 -4,4"/>
<!-- start -->
<g id="node1" class="node">
<title>start</title>
<polygon fill="none" stroke="#000000" points="475.0268,-568 301.9732,-568 301.9732,-532 475.0268,-532 475.0268,-568"/>
<text text-anchor="middle" x="388.5" y="-545.8" font-family="Times,serif" font-size="14.00" fill="#000000">rspamd.webinterface.enable</text>
</g>
<!-- enable_true -->
<g id="node2" class="node">
<title>enable_true</title>
<polygon fill="none" stroke="#000000" points="379.5,-496 325.5,-496 325.5,-460 379.5,-460 379.5,-496"/>
<text text-anchor="middle" x="352.5" y="-473.8" font-family="Times,serif" font-size="14.00" fill="#000000">true</text>
</g>
<!-- start&#45;&gt;enable_true -->
<g id="edge1" class="edge">
<title>start&#45;&gt;enable_true</title>
<path fill="none" stroke="#000000" d="M379.4157,-531.8314C375.4385,-523.8771 370.6845,-514.369 366.2861,-505.5723"/>
<polygon fill="#000000" stroke="#000000" points="369.3093,-503.7923 361.7066,-496.4133 363.0483,-506.9228 369.3093,-503.7923"/>
</g>
<!-- enable_false -->
<g id="node3" class="node">
<title>enable_false</title>
<polygon fill="none" stroke="#000000" points="480.5,-496 426.5,-496 426.5,-460 480.5,-460 480.5,-496"/>
<text text-anchor="middle" x="453.5" y="-473.8" font-family="Times,serif" font-size="14.00" fill="#000000">false</text>
</g>
<!-- start&#45;&gt;enable_false -->
<g id="edge2" class="edge">
<title>start&#45;&gt;enable_false</title>
<path fill="none" stroke="#000000" d="M404.9022,-531.8314C412.5415,-523.3694 421.7683,-513.1489 430.1207,-503.8971"/>
<polygon fill="#000000" stroke="#000000" points="432.7738,-506.1813 436.8769,-496.4133 427.5779,-501.4906 432.7738,-506.1813"/>
</g>
<!-- publish -->
<g id="node5" class="node">
<title>publish</title>
<polygon fill="none" stroke="#000000" points="383.2184,-416 205.7816,-416 205.7816,-380 383.2184,-380 383.2184,-416"/>
<text text-anchor="middle" x="294.5" y="-393.8" font-family="Times,serif" font-size="14.00" fill="#000000">rspamd.webinterface.publish</text>
</g>
<!-- enable_true&#45;&gt;publish -->
<g id="edge4" class="edge">
<title>enable_true&#45;&gt;publish</title>
<path fill="none" stroke="#000000" d="M339.3389,-459.8468C331.7008,-449.3114 321.948,-435.8593 313.4901,-424.1932"/>
<polygon fill="#000000" stroke="#000000" points="316.3124,-422.1231 307.609,-416.0814 310.6451,-426.2319 316.3124,-422.1231"/>
</g>
<!-- disabled -->
<g id="node4" class="node">
<title>disabled</title>
<polygon fill="none" stroke="#000000" points="401.5,-398 401.5,-424 527.5,-424 527.5,-398 401.5,-398"/>
<text text-anchor="start" x="406.379" y="-406.4" font-family="Times,serif" font-size="14.00" fill="#000000">Connections (caddy)</text>
<polygon fill="none" stroke="#000000" points="527.5,-398 527.5,-424 564.5,-424 564.5,-398 527.5,-398"/>
<text text-anchor="start" x="532.3927" y="-406.4" font-family="Times,serif" font-size="14.00" fill="#000000">none</text>
<polygon fill="none" stroke="#000000" points="401.5,-372 401.5,-398 527.5,-398 527.5,-372 401.5,-372"/>
<text text-anchor="start" x="410.2724" y="-380.4" font-family="Times,serif" font-size="14.00" fill="#000000">Networks (rspamd)</text>
<polygon fill="none" stroke="#000000" points="527.5,-372 527.5,-398 564.5,-398 564.5,-372 527.5,-372"/>
<text text-anchor="start" x="532.3927" y="-380.4" font-family="Times,serif" font-size="14.00" fill="#000000">none</text>
</g>
<!-- enable_false&#45;&gt;disabled -->
<g id="edge3" class="edge">
<title>enable_false&#45;&gt;disabled</title>
<path fill="none" stroke="#000000" d="M460.0805,-459.8468C462.8787,-452.1278 466.2443,-442.8432 469.5071,-433.8425"/>
<polygon fill="#000000" stroke="#000000" points="472.8579,-434.8688 472.9754,-424.2746 466.2769,-432.4832 472.8579,-434.8688"/>
</g>
<!-- publish_true -->
<g id="node6" class="node">
<title>publish_true</title>
<polygon fill="none" stroke="#000000" points="285.5,-336 231.5,-336 231.5,-300 285.5,-300 285.5,-336"/>
<text text-anchor="middle" x="258.5" y="-313.8" font-family="Times,serif" font-size="14.00" fill="#000000">true</text>
</g>
<!-- publish&#45;&gt;publish_true -->
<g id="edge5" class="edge">
<title>publish&#45;&gt;publish_true</title>
<path fill="none" stroke="#000000" d="M286.331,-379.8468C281.7282,-369.6183 275.8882,-356.6405 270.7477,-345.217"/>
<polygon fill="#000000" stroke="#000000" points="273.9321,-343.7643 266.6366,-336.0814 267.5486,-346.6369 273.9321,-343.7643"/>
</g>
<!-- publish_false -->
<g id="node7" class="node">
<title>publish_false</title>
<polygon fill="none" stroke="#000000" points="406.5,-336 352.5,-336 352.5,-300 406.5,-300 406.5,-336"/>
<text text-anchor="middle" x="379.5" y="-313.8" font-family="Times,serif" font-size="14.00" fill="#000000">false</text>
</g>
<!-- publish&#45;&gt;publish_false -->
<g id="edge6" class="edge">
<title>publish&#45;&gt;publish_false</title>
<path fill="none" stroke="#000000" d="M313.7878,-379.8468C325.3077,-369.0045 340.1097,-355.0732 352.7478,-343.1785"/>
<polygon fill="#000000" stroke="#000000" points="355.4053,-345.4838 360.2885,-336.0814 350.6077,-340.3864 355.4053,-345.4838"/>
</g>
<!-- published -->
<g id="node8" class="node">
<title>published</title>
<polygon fill="none" stroke="#000000" points=".5,-238 .5,-264 126.5,-264 126.5,-238 .5,-238"/>
<text text-anchor="start" x="5.379" y="-246.4" font-family="Times,serif" font-size="14.00" fill="#000000">Connections (caddy)</text>
<polygon fill="none" stroke="#000000" points="126.5,-238 126.5,-264 321.5,-264 321.5,-238 126.5,-238"/>
<text text-anchor="start" x="210.3927" y="-246.4" font-family="Times,serif" font-size="14.00" fill="#000000">none</text>
<polygon fill="none" stroke="#000000" points=".5,-212 .5,-238 126.5,-238 126.5,-212 .5,-212"/>
<text text-anchor="start" x="9.2724" y="-220.4" font-family="Times,serif" font-size="14.00" fill="#000000">Networks (rspamd)</text>
<polygon fill="none" stroke="#000000" points="126.5,-212 126.5,-238 321.5,-238 321.5,-212 126.5,-212"/>
<text text-anchor="start" x="153.6325" y="-220.4" font-family="Times,serif" font-size="14.00" fill="#000000">expose.mailstack.rspamd</text>
<polygon fill="none" stroke="#000000" points=".5,-186 .5,-212 126.5,-212 126.5,-186 .5,-186"/>
<text text-anchor="start" x="35.8885" y="-194.4" font-family="Times,serif" font-size="14.00" fill="#000000">Comment</text>
<polygon fill="none" stroke="#000000" points="126.5,-186 126.5,-212 321.5,-212 321.5,-186 126.5,-186"/>
<text text-anchor="start" x="131.4691" y="-194.4" font-family="Times,serif" font-size="14.00" fill="#000000">Rspamd reachable on port 11334</text>
</g>
<!-- publish_true&#45;&gt;published -->
<g id="edge7" class="edge">
<title>publish_true&#45;&gt;published</title>
<path fill="none" stroke="#000000" d="M239.1384,-299.6262C230.4364,-291.3682 219.7369,-281.2146 209.0649,-271.0871"/>
<polygon fill="#000000" stroke="#000000" points="211.3688,-268.4483 201.7058,-264.1035 206.5503,-273.5259 211.3688,-268.4483"/>
</g>
<!-- domain -->
<g id="node9" class="node">
<title>domain</title>
<polygon fill="none" stroke="#000000" points="517.9889,-243 339.0111,-243 339.0111,-207 517.9889,-207 517.9889,-243"/>
<text text-anchor="middle" x="428.5" y="-220.8" font-family="Times,serif" font-size="14.00" fill="#000000">rspamd.webinterface.domain</text>
</g>
<!-- publish_false&#45;&gt;domain -->
<g id="edge8" class="edge">
<title>publish_false&#45;&gt;domain</title>
<path fill="none" stroke="#000000" d="M389.1808,-299.6262C396.3409,-286.0366 406.2059,-267.3133 414.2632,-252.0209"/>
<polygon fill="#000000" stroke="#000000" points="417.4411,-253.4978 419.006,-243.0192 411.2481,-250.2348 417.4411,-253.4978"/>
</g>
<!-- domain_set -->
<g id="node10" class="node">
<title>domain_set</title>
<polygon fill="none" stroke="#000000" points="412.2408,-150 276.7592,-150 276.7592,-114 412.2408,-114 412.2408,-150"/>
<text text-anchor="middle" x="344.5" y="-127.8" font-family="Times,serif" font-size="14.00" fill="#000000">rspamd.example.com</text>
</g>
<!-- domain&#45;&gt;domain_set -->
<g id="edge9" class="edge">
<title>domain&#45;&gt;domain_set</title>
<path fill="none" stroke="#000000" d="M411.9043,-206.6262C399.2825,-192.652 381.7575,-173.2494 367.7409,-157.731"/>
<polygon fill="#000000" stroke="#000000" points="370.0757,-155.0942 360.7754,-150.0192 364.8809,-159.7863 370.0757,-155.0942"/>
</g>
<!-- domain_unset -->
<g id="node11" class="node">
<title>domain_unset</title>
<polygon fill="none" stroke="#000000" points="539.5,-150 485.5,-150 485.5,-114 539.5,-114 539.5,-150"/>
<text text-anchor="middle" x="512.5" y="-127.8" font-family="Times,serif" font-size="14.00" fill="#000000">none</text>
</g>
<!-- domain&#45;&gt;domain_unset -->
<g id="edge10" class="edge">
<title>domain&#45;&gt;domain_unset</title>
<path fill="none" stroke="#000000" d="M445.0957,-206.6262C457.7175,-192.652 475.2425,-173.2494 489.2591,-157.731"/>
<polygon fill="#000000" stroke="#000000" points="492.1191,-159.7863 496.2246,-150.0192 486.9243,-155.0942 492.1191,-159.7863"/>
</g>
<!-- set -->
<g id="node12" class="node">
<title>set</title>
<polygon fill="none" stroke="#000000" points="25.5,-52 25.5,-78 443.5,-78 443.5,-52 25.5,-52"/>
<text text-anchor="start" x="107.4017" y="-60.4" font-family="Times,serif" font-size="14.00" fill="#000000">ssl.certificate: &#39;self&#39; or ssl.certificate: &#39;caddy&#39;</text>
<polygon fill="none" stroke="#000000" points="25.5,-26 25.5,-52 151.5,-52 151.5,-26 25.5,-26"/>
<text text-anchor="start" x="30.379" y="-34.4" font-family="Times,serif" font-size="14.00" fill="#000000">Connections (caddy)</text>
<polygon fill="none" stroke="#000000" points="151.5,-26 151.5,-52 443.5,-52 443.5,-26 151.5,-26"/>
<text text-anchor="start" x="156.3688" y="-34.4" font-family="Times,serif" font-size="14.00" fill="#000000">rspamd.example.com:80, rspamd.examle.com:443</text>
<polygon fill="none" stroke="#000000" points="25.5,0 25.5,-26 151.5,-26 151.5,0 25.5,0"/>
<text text-anchor="start" x="34.2724" y="-8.4" font-family="Times,serif" font-size="14.00" fill="#000000">Networks (rspamd)</text>
<polygon fill="none" stroke="#000000" points="151.5,0 151.5,-26 443.5,-26 443.5,0 151.5,0"/>
<text text-anchor="start" x="283.8927" y="-8.4" font-family="Times,serif" font-size="14.00" fill="#000000">none</text>
</g>
<!-- domain_set&#45;&gt;set -->
<g id="edge11" class="edge">
<title>domain_set&#45;&gt;set</title>
<path fill="none" stroke="#000000" d="M323.0298,-113.8479C313.1823,-105.5223 301.0159,-95.2362 288.8892,-84.9836"/>
<polygon fill="#000000" stroke="#000000" points="290.8469,-82.0554 280.9506,-78.2719 286.3274,-87.401 290.8469,-82.0554"/>
</g>
<!-- unset_self -->
<g id="node13" class="node">
<title>unset_self</title>
<polygon fill="none" stroke="#000000" points="462.5,-52 462.5,-78 675.5,-78 675.5,-52 462.5,-52"/>
<text text-anchor="start" x="513.4207" y="-60.4" font-family="Times,serif" font-size="14.00" fill="#000000">ssl.certificate: &#39;self&#39;</text>
<polygon fill="none" stroke="#000000" points="462.5,-26 462.5,-52 588.5,-52 588.5,-26 462.5,-26"/>
<text text-anchor="start" x="467.379" y="-34.4" font-family="Times,serif" font-size="14.00" fill="#000000">Connections (caddy)</text>
<polygon fill="none" stroke="#000000" points="588.5,-26 588.5,-52 675.5,-52 675.5,-26 588.5,-26"/>
<text text-anchor="start" x="593.3047" y="-34.4" font-family="Times,serif" font-size="14.00" fill="#000000">0.0.0.0:11334</text>
<polygon fill="none" stroke="#000000" points="462.5,0 462.5,-26 588.5,-26 588.5,0 462.5,0"/>
<text text-anchor="start" x="471.2724" y="-8.4" font-family="Times,serif" font-size="14.00" fill="#000000">Networks (rspamd)</text>
<polygon fill="none" stroke="#000000" points="588.5,0 588.5,-26 675.5,-26 675.5,0 588.5,0"/>
<text text-anchor="start" x="618.3927" y="-8.4" font-family="Times,serif" font-size="14.00" fill="#000000">none</text>
</g>
<!-- domain_unset&#45;&gt;unset_self -->
<g id="edge12" class="edge">
<title>domain_unset&#45;&gt;unset_self</title>
<path fill="none" stroke="#000000" d="M523.5638,-113.6262C528.2495,-105.8447 533.9487,-96.3799 539.6932,-86.8398"/>
<polygon fill="#000000" stroke="#000000" points="542.7937,-88.4758 544.9538,-78.1035 536.7969,-84.8648 542.7937,-88.4758"/>
</g>
</g>
</svg>
